<svg width="52" height="52" viewBox="0 0 52 52" fill="none" xmlns="http://www.w3.org/2000/svg">
<path d="M48.7958 4.07074H3.2042C1.43731 4.07074 0 5.50805 0 7.27483V38.2121C0 39.9789 1.43731 41.4162 3.2042 41.4162H18.624L18.0003 46.4059H15.4162C14.9954 46.4059 14.6545 46.7469 14.6545 47.1676C14.6545 47.5882 14.9954 47.9293 15.4162 47.9293H36.5838C37.0046 47.9293 37.3455 47.5882 37.3455 47.1676C37.3455 46.7469 37.0046 46.4059 36.5838 46.4059H33.9998L33.376 41.4162H48.7958C50.5626 41.4162 52 39.9789 52 38.2121V7.27483C52 5.50805 50.5627 4.07074 48.7958 4.07074ZM19.5356 46.4059L20.1594 41.4162H22.9629L23.2379 42.5161C23.5554 43.7859 24.6913 44.6727 26.0001 44.6727C27.3089 44.6727 28.4448 43.7859 28.7623 42.5161L29.0373 41.4162H31.8408L32.4644 46.4059H19.5356ZM24.5331 41.4162H27.4668L27.2842 42.1466C27.1366 42.737 26.6086 43.1492 25.9999 43.1492C25.3912 43.1492 24.8633 42.7369 24.7156 42.1466L24.5331 41.4162ZM50.4766 38.2121C50.4766 39.1389 49.7226 39.8927 48.7958 39.8927H3.2042C2.27744 39.8927 1.52344 39.1389 1.52344 38.2121V7.27483C1.52344 6.34808 2.27744 5.59418 3.2042 5.59418H48.7958C49.7226 5.59418 50.4766 6.34808 50.4766 7.27483V38.2121V38.2121Z" fill="#15888A"/>
<path d="M43.0967 7.32733H4.01807C3.59729 7.32733 3.25635 7.66828 3.25635 8.08905V37.398C3.25635 37.8187 3.59729 38.1597 4.01807 38.1597H5.64642C6.06719 38.1597 6.40814 37.8187 6.40814 37.398C6.40824 36.9773 6.06719 36.6362 5.64652 36.6362H4.77989V8.85077H43.0967C43.5174 8.85077 43.8584 8.50972 43.8584 8.08905C43.8584 7.66828 43.5174 7.32733 43.0967 7.32733Z" fill="#15888A"/>
<path d="M47.9819 7.32733H46.3536C45.9328 7.32733 45.5919 7.66828 45.5919 8.08905C45.5919 8.50972 45.9328 8.85077 46.3536 8.85077H47.2202V36.6362H8.90332C8.48255 36.6362 8.1416 36.9773 8.1416 37.398C8.1416 37.8187 8.48255 38.1597 8.90332 38.1597H47.9818C48.4026 38.1597 48.7435 37.8187 48.7435 37.398V8.08905C48.7436 7.66828 48.4026 7.32733 47.9819 7.32733Z" fill="#15888A"/>
<path d="M36.3693 15.7609C36.2324 15.5859 36.026 15.4794 35.8041 15.4694L17.8932 14.6552C17.8792 14.6546 17.8655 14.6542 17.8513 14.6545C17.7453 14.3064 17.5213 14.0046 17.218 13.8022L15.0246 12.3399C14.6746 12.1067 14.2016 12.2012 13.9683 12.5513C13.735 12.9014 13.8296 13.3743 14.1796 13.6075L16.3729 15.0696C16.3833 15.0765 16.3909 15.087 16.3943 15.099L19.1882 24.8775C19.2754 25.1824 19.4188 25.4564 19.6029 25.6931L18.5807 27.7375C18.3346 28.2296 18.3604 28.8027 18.6496 29.2707C18.7545 29.4404 18.8876 29.585 19.0404 29.7007C18.8404 30.05 18.7253 30.454 18.7253 30.8846C18.7253 32.2025 19.7975 33.2746 21.1153 33.2746C22.433 33.2746 23.5052 32.2024 23.5052 30.8846C23.5052 30.579 23.4469 30.287 23.3419 30.0181H30.2865C30.1814 30.287 30.1231 30.579 30.1231 30.8846C30.1231 32.2025 31.1953 33.2746 32.5131 33.2746C33.8309 33.2746 34.9031 32.2024 34.9031 30.8846C34.9031 30.5024 34.8124 30.1411 34.6521 29.8204C34.8059 29.681 34.9031 29.4803 34.9031 29.2564C34.9031 28.8357 34.5621 28.4947 34.1414 28.4947H19.9898C19.979 28.4947 19.9606 28.4947 19.9453 28.4698C19.9299 28.445 19.9382 28.4287 19.943 28.4188L20.8847 26.5355C21.0764 26.5848 21.276 26.6114 21.4804 26.6114C21.5745 26.6114 21.6696 26.6058 21.7653 26.5946L32.4685 25.3355C33.8509 25.1728 34.9631 24.1466 35.2361 22.7816L36.5164 16.3797C36.56 16.1618 36.5062 15.9359 36.3693 15.7609ZM32.5129 30.0183C32.9908 30.0183 33.3794 30.4071 33.3794 30.8848C33.3794 31.3627 32.9908 31.7514 32.5129 31.7514C32.0351 31.7514 31.6464 31.3627 31.6464 30.8848C31.6464 30.407 32.0351 30.0183 32.5129 30.0183ZM21.1151 30.0183C21.5929 30.0183 21.9816 30.407 21.9816 30.8848C21.9816 31.3627 21.5929 31.7514 21.1151 31.7514C20.6372 31.7514 20.2485 31.3627 20.2485 30.8848C20.2485 30.407 20.6372 30.0183 21.1151 30.0183ZM19.2471 19.5393L18.2925 16.1984L21.3379 16.3368L21.8659 19.5393H19.2471ZM21.5873 25.0817C21.1626 25.1316 20.77 24.8697 20.6528 24.4591L19.6824 21.0627H22.1171L22.757 24.9441L21.5873 25.0817ZM26.0523 24.5564L24.2717 24.7659L23.6612 21.0628H26.0523V24.5564ZM26.0523 19.5393H23.41L22.8936 16.4076L26.0523 16.5512V19.5393ZM29.9099 24.1025L27.5758 24.3771V21.0627H30.185L29.9099 24.1025ZM30.3229 19.5393H27.5758V16.6204L30.5748 16.7567L30.3229 19.5393ZM33.7421 22.483C33.5989 23.1988 33.0155 23.7372 32.2905 23.8225L31.4559 23.9207L31.7146 21.0628H34.0261L33.7421 22.483ZM34.3309 19.5393H31.8526L32.0982 16.826L34.8485 16.951L34.3309 19.5393Z" fill="black"/>
</svg>
