<svg width="52" height="52" viewBox="0 0 52 52" fill="none" xmlns="http://www.w3.org/2000/svg">
<g clip-path="url(#clip0_20_40)">
<path d="M50.1022 22.8282C49.0275 21.7535 47.7138 21.3383 46.801 21.1792C45.7607 20.9974 44.738 21.5453 44.3137 22.5105L40.4777 31.2368C40.0387 32.2356 40.3708 33.412 41.2674 34.0339L43.2635 35.4185C42.8499 36.1805 41.8614 37.7319 39.7955 39.7979C37.7478 41.8455 36.1818 42.844 35.4143 43.2635L34.0315 41.2699C33.4097 40.3733 32.2331 40.0413 31.2344 40.4804L29.0453 41.4428C28.6602 41.612 28.4852 42.0614 28.6545 42.4466C28.8238 42.8317 29.2733 43.0068 29.6583 42.8374L31.8474 41.8751C32.1805 41.7287 32.5725 41.8394 32.7799 42.1382L34.5347 44.6683C34.7337 44.9553 35.1023 45.0701 35.429 44.947C35.5188 44.9132 37.6663 44.0818 40.8728 40.8753C44.0793 37.6689 44.9107 35.5214 44.9445 35.4315C45.0675 35.1048 44.9526 34.7362 44.6657 34.5373L42.1357 32.7824C41.8368 32.575 41.7261 32.1829 41.8725 31.85L45.7084 23.1239C45.85 22.802 46.1918 22.6195 46.5395 22.6802C47.2357 22.8016 48.2322 23.1127 49.0252 23.9057C50.5432 25.4237 50.8877 28.436 49.9471 31.9636C48.9011 35.8858 46.4994 39.8715 43.1843 43.1867C39.8692 46.5019 35.8833 48.9037 31.9612 49.9495C28.4336 50.8901 25.4212 50.5455 23.9032 49.0276C23.1103 48.2346 22.7991 47.2382 22.6778 46.5419C22.6172 46.1941 22.7996 45.8523 23.1214 45.7109L26.9087 44.0461C27.2938 43.8768 27.4688 43.4274 27.2995 43.0423C27.1303 42.6572 26.681 42.4822 26.2957 42.6515L22.5084 44.3163C21.5433 44.7406 20.9958 45.7634 21.1772 46.8035C21.1819 46.8305 21.1875 46.8589 21.1927 46.8865C19.3161 46.4573 17.5147 45.7781 15.8166 44.8589C16.3556 43.9253 16.6657 42.8437 16.6657 41.6904C16.6657 40.0273 16.0278 38.4545 14.8695 37.2618C13.7139 36.072 12.1657 35.3878 10.5098 35.3355C10.153 35.3227 9.83549 35.5628 9.74754 35.9092C9.65949 36.2556 9.82422 36.6167 10.1435 36.7772C11.3476 37.3829 12.0956 38.595 12.0956 39.9405C12.0956 41.8921 10.5078 43.4799 8.55605 43.4799C7.2105 43.4799 5.99839 42.7319 5.3928 41.5279C5.23213 41.2086 4.87119 41.0439 4.52477 41.1319C4.17836 41.2199 3.93979 41.537 3.95107 41.8942C4.00347 43.55 4.68757 45.0983 5.87744 46.2538C7.07014 47.4122 8.64289 48.0501 10.3059 48.0501C12.1063 48.0501 13.7332 47.2968 14.8913 46.0904C17.0325 47.2769 19.3305 48.1042 21.7346 48.5553C21.9883 49.0812 22.339 49.6174 22.8262 50.1046C24.0787 51.3571 25.9747 52.0001 28.2739 52C29.5272 52 30.9005 51.8089 32.3538 51.4213C36.531 50.3074 40.7599 47.7654 44.2616 44.2637C47.7634 40.762 50.3053 36.533 51.4193 32.3559C52.5175 28.2363 52.0375 24.7635 50.1022 22.8282V22.8282ZM10.3055 46.5267C8.67681 46.5267 7.24208 45.7364 6.36705 44.51C7.03612 44.8297 7.78035 45.0033 8.55565 45.0033C11.3473 45.0033 13.6186 42.7321 13.6186 39.9405C13.6186 39.1652 13.4451 38.421 13.1253 37.7518C14.3517 38.6268 15.1419 40.0616 15.1419 41.6902C15.1419 44.3571 12.9723 46.5267 10.3055 46.5267V46.5267Z" fill="#15888A"/>
<path d="M9.55276 41.6615C9.73526 41.6615 9.91837 41.5963 10.0641 41.4641C10.3758 41.1815 10.3994 40.6998 10.1168 40.3881C6.53818 36.4414 4.56733 31.3312 4.56733 25.9991C4.56733 14.1831 14.1803 4.57014 25.9963 4.57014C27.4508 4.57014 28.904 4.71658 30.3158 5.00552C30.7277 5.09002 31.1304 4.82414 31.2147 4.41201C31.2991 3.99988 31.0333 3.59741 30.6212 3.51311C29.1092 3.20366 27.5532 3.04675 25.9963 3.04675C19.8655 3.04675 14.1016 5.4342 9.76654 9.76934C5.43149 14.1045 3.04395 19.8683 3.04395 25.9991C3.04395 31.7102 5.15495 37.1839 8.98819 41.4114C9.1386 41.5773 9.34527 41.6615 9.55276 41.6615V41.6615Z" fill="#15888A"/>
<path d="M32.9315 37.2944C33.0312 37.3382 33.1352 37.359 33.2376 37.359C33.5305 37.359 33.8099 37.189 33.9353 36.9036L39.1853 24.9605C39.2889 24.725 39.2664 24.4532 39.1259 24.2377C38.9853 24.0221 38.7453 23.8923 38.4881 23.8923H31.9179C31.4973 23.8923 31.1562 24.2334 31.1562 24.654C31.1562 25.0747 31.4973 25.4157 31.9179 25.4157H37.3213L32.5409 36.2906C32.3714 36.6757 32.5464 37.1251 32.9315 37.2944V37.2944Z" fill="black"/>
<path d="M22.9568 37.2944C23.0565 37.3382 23.1605 37.359 23.2629 37.359C23.5558 37.359 23.8352 37.1889 23.9606 36.9036L32.9112 16.5424C33.0805 16.1573 32.9055 15.7079 32.5204 15.5386C32.1354 15.3695 31.6859 15.5443 31.5166 15.9294L22.566 36.2906C22.3968 36.6757 22.5717 37.1251 22.9568 37.2944V37.2944Z" fill="black"/>
<path d="M23.2485 28.9405H23.2552C23.6727 28.9405 24.0131 28.6039 24.0167 28.1853C24.0194 27.8634 24.0285 26.7847 24.0383 25.4156H24.8087C25.2294 25.4156 25.5704 25.0746 25.5704 24.6539C25.5704 24.2333 25.2294 23.8922 24.8087 23.8922H24.0484C24.067 20.911 24.08 17.4338 24.044 17.0004C23.9846 16.2867 23.5728 15.7099 22.9953 15.5311C22.7244 15.4473 22.021 15.3416 21.3447 16.1712C20.6657 17.0044 17.052 23.5432 16.6422 24.286C16.512 24.5219 16.5161 24.8091 16.6531 25.0412C16.7901 25.2732 17.0396 25.4156 17.309 25.4156H22.5149C22.5081 26.3808 22.5007 27.3225 22.4934 28.1722C22.4897 28.593 22.8278 28.937 23.2485 28.9405V28.9405ZM18.6017 23.8923C20.1206 21.1619 22.1364 17.611 22.5254 17.1337C22.5257 17.1334 22.5259 17.1331 22.5262 17.1327C22.5544 17.5058 22.5452 20.6284 22.525 23.8923H18.6017Z" fill="black"/>
<path d="M13.9858 21.793C10.2782 27.0904 9.77255 27.762 9.75406 27.7864C9.57816 28.0162 9.54759 28.3259 9.67536 28.5857C9.80312 28.8454 10.0671 29.0103 10.3565 29.0111L16.4424 29.0298H16.4448C16.8643 29.0298 17.2051 28.6903 17.2065 28.2704C17.2078 27.8498 16.8678 27.5077 16.4471 27.5064L11.8398 27.4923C12.4566 26.6233 13.4956 25.1501 15.2338 22.6664C15.9533 21.6383 16.4202 20.677 16.6215 19.8091C16.6273 19.7841 16.6318 19.7589 16.635 19.7335L16.694 19.2715C16.6982 19.2395 16.7002 19.2073 16.7002 19.175C16.7002 17.0699 14.9876 15.3573 12.8825 15.3573C11.0622 15.3573 9.48676 16.6521 9.13648 18.4359C9.05544 18.8486 9.32437 19.249 9.7371 19.3301C10.1499 19.411 10.5503 19.1422 10.6313 18.7295C10.8418 17.6582 11.7885 16.8807 12.8826 16.8807C14.1327 16.8807 15.1523 17.8856 15.1764 19.1299L15.1291 19.5005C14.9669 20.1696 14.5824 20.9406 13.9858 21.793V21.793Z" fill="black"/>
<path d="M32.1415 11.0696H35.3751C35.7228 13.9684 38.0272 16.2728 40.926 16.6205V19.8542C40.926 20.2748 41.2671 20.6159 41.6877 20.6159C42.1084 20.6159 42.4494 20.2748 42.4494 19.8542V16.6205C43.0581 16.5475 43.641 16.3894 44.1848 16.1563L45.8013 18.956C45.9423 19.2003 46.1983 19.3369 46.4616 19.3369C46.5908 19.3369 46.7218 19.304 46.8417 19.2348C47.206 19.0244 47.3308 18.5586 47.1205 18.1943L45.503 15.3927C45.9834 15.0313 46.4111 14.6036 46.7726 14.1231L49.5742 15.7406C49.6941 15.8099 49.8251 15.8428 49.9543 15.8428C50.2175 15.8428 50.4736 15.7061 50.6146 15.4618C50.825 15.0975 50.7001 14.6317 50.3359 14.4214L47.5361 12.805C47.7692 12.2612 47.9273 11.6784 48.0003 11.0696H51.2339C51.6546 11.0696 51.9956 10.7286 51.9956 10.3079C51.9956 9.88727 51.6546 9.54623 51.2339 9.54623H48.0003C47.9273 8.93749 47.7692 8.35464 47.5361 7.8109L50.3359 6.19448C50.7001 5.98416 50.825 5.51831 50.6146 5.15401C50.4043 4.78962 49.9384 4.66491 49.5742 4.87523L46.7726 6.49266C46.4112 6.01219 45.9834 5.58452 45.503 5.22307L47.1205 2.42147C47.3308 2.05718 47.206 1.59133 46.8417 1.381C46.4774 1.17067 46.0116 1.29549 45.8013 1.65978L44.1848 4.45955C43.6411 4.22648 43.0582 4.06835 42.4495 3.99533V0.761692C42.4495 0.341035 42.1085 0 41.6878 0C41.2672 0 40.9261 0.341035 40.9261 0.761692V3.99533C40.3174 4.06835 39.7345 4.22648 39.1908 4.45955L37.5744 1.65978C37.364 1.29538 36.8982 1.17067 36.5339 1.381C36.1696 1.59133 36.0448 2.05718 36.2551 2.42147L37.8726 5.22307C37.3922 5.58442 36.9644 6.01219 36.6031 6.49266L33.8015 4.87513C33.4371 4.6647 32.9712 4.78962 32.761 5.15391C32.5507 5.5182 32.6755 5.98405 33.0398 6.19438L35.8394 7.81079C35.6064 8.35454 35.4482 8.93749 35.3752 9.54623H32.1416C31.7209 9.54623 31.3799 9.88727 31.3799 10.3079C31.3799 10.7286 31.7208 11.0696 32.1415 11.0696V11.0696ZM36.8513 10.3079C36.8513 7.64109 39.0209 5.47149 41.6877 5.47149C44.3545 5.47149 46.5241 7.64109 46.5241 10.3079C46.5241 12.9748 44.3545 15.1444 41.6877 15.1444C39.0209 15.1444 36.8513 12.9748 36.8513 10.3079Z" fill="black"/>
<path d="M4.57259 37.3271C4.57259 36.9064 4.23156 36.5654 3.8109 36.5654H3.04921V35.2959C3.04921 34.8752 2.70817 34.5342 2.28752 34.5342C1.86686 34.5342 1.52583 34.8752 1.52583 35.2959V36.5654H0.764133C0.343476 36.5654 0.00244141 36.9064 0.00244141 37.3271C0.00244141 37.7477 0.343476 38.0888 0.764133 38.0888H1.52583V39.3582C1.52583 39.7789 1.86686 40.1199 2.28752 40.1199C2.70817 40.1199 3.04921 39.7789 3.04921 39.3582V38.0888H3.8109C4.23156 38.0888 4.57259 37.7477 4.57259 37.3271Z" fill="#15888A"/>
<path d="M16.4307 49.1388H16.1904V48.5645C16.1904 48.1438 15.8494 47.8028 15.4287 47.8028C15.0081 47.8028 14.667 48.1438 14.667 48.5645V49.1388H14.4267C14.0061 49.1388 13.665 49.4798 13.665 49.9005C13.665 50.3211 14.0061 50.6622 14.4267 50.6622H14.667V51.2365C14.667 51.6571 15.0081 51.9982 15.4287 51.9982C15.8494 51.9982 16.1904 51.6571 16.1904 51.2365V50.6622H16.4307C16.8513 50.6622 17.1924 50.3211 17.1924 49.9005C17.1924 49.4798 16.8513 49.1388 16.4307 49.1388Z" fill="#15888A"/>
</g>
<defs>
<clipPath id="clip0_20_40">
<rect width="52" height="52" fill="white"/>
</clipPath>
</defs>
</svg>
