<svg width="82" height="82" viewBox="0 0 82 82" fill="none" xmlns="http://www.w3.org/2000/svg">
<path d="M40.9672 82C34.0267 82 28.0265 73.0951 25.3145 58.7454L28.6671 58.1048C30.995 70.3618 35.9273 78.5835 40.9672 78.5835C47.4373 78.5835 54.6337 63.1441 54.6337 41C54.6337 18.8559 47.4373 3.41646 40.9672 3.41646C35.9273 3.41646 30.995 11.6382 28.6671 23.8952L25.3145 23.2546C28.0265 8.90494 34.0267 0 40.9672 0C50.5553 0 58.0501 18.0013 58.0501 41C58.0501 63.9987 50.5553 82 40.9672 82V82Z" fill="#282828"/>
<path d="M17.5842 66.625C10.4516 66.625 7.44055 63.913 6.1593 61.6282C1.48286 53.3001 13.0786 37.6899 32.5745 26.1161C46.6901 17.7241 61.2318 13.7521 69.6031 15.9943C72.5072 16.7632 74.5786 18.2365 75.7741 20.3717C76.5004 21.653 76.842 23.1263 76.842 24.7278C76.8208 28.8919 75.1122 32.9283 71.8021 36.7289L69.2396 34.4867C72.0373 31.2836 73.4249 28.0805 73.4468 24.7066C73.4468 23.6818 73.2329 22.7847 72.8275 22.0377C72.1012 20.7346 70.7348 19.8168 68.7485 19.2825C61.3175 17.2968 47.5015 21.2263 34.3255 29.0414C15.235 40.3806 5.90342 54.1753 9.12782 59.9622C10.6437 62.6742 14.5944 63.1654 17.6906 63.2085C18.9718 63.2085 20.1892 63.1872 21.7695 63.059L22.0686 66.4542C20.36 66.6037 19.015 66.625 17.7124 66.625C17.6693 66.625 17.6267 66.625 17.5842 66.625V66.625Z" fill="#282828"/>
<path d="M64.3499 66.625C55.851 66.625 44.0632 62.7174 32.5532 55.8839C13.0786 44.3101 1.48293 28.6999 6.15937 20.3717C7.44062 18.087 10.473 15.375 17.5843 15.375H17.8189C19.2709 15.375 20.5309 15.4388 22.0261 15.5458L21.7909 18.9622C20.3601 18.8559 19.1646 18.8127 17.7976 18.8127C14.7227 18.8559 10.6869 19.3257 9.14916 22.059C5.90349 27.8246 15.2351 41.6194 34.3043 52.9585C47.4584 60.7737 61.2963 64.7031 68.7273 62.7174C70.6917 62.1832 72.0799 61.2654 72.7844 59.9622C73.2117 59.194 73.425 58.2543 73.4037 57.2077C73.3612 54.6239 72.2295 47.7478 62.7271 39.6549L64.948 37.0493C72.379 43.3704 76.7138 50.6951 76.8421 57.1439C76.8633 58.8093 76.5218 60.3257 75.7742 61.6283C74.5786 63.7422 72.5072 65.2155 69.6031 66.0056C68.0654 66.4117 66.293 66.625 64.3499 66.625V66.625Z" fill="#282828"/>
<path d="M40.9669 49.5414C36.2473 49.5414 32.4248 45.7189 32.4248 41C32.4248 36.281 36.2473 32.4585 40.9669 32.4585C45.6859 32.4585 49.5083 36.281 49.5083 41C49.5083 45.7189 45.6859 49.5414 40.9669 49.5414ZM40.9669 35.875C38.1479 35.875 35.8419 38.181 35.8419 41C35.8419 43.819 38.1479 46.125 40.9669 46.125C43.7853 46.125 46.0919 43.819 46.0919 41C46.0919 38.181 43.7853 35.875 40.9669 35.875V35.875Z" fill="#282828"/>
</svg>
