<svg width="460" height="348" viewBox="0 0 460 348" fill="none" xmlns="http://www.w3.org/2000/svg">
<g clip-path="url(#clip0_28_2)">
<path d="M265.084 16.9003C269.03 25.297 260.669 27.6754 251.092 32.1759C241.514 36.6764 234.347 41.5948 230.401 33.1981C226.456 24.8014 223.254 8.13556 236.803 1.76879C250.819 -4.8173 261.139 8.50362 265.084 16.9003Z" fill="#2F2E41"/>
<path d="M245.544 33.4132C252.665 33.4132 258.438 27.6407 258.438 20.5199C258.438 13.3991 252.665 7.62654 245.544 7.62654C238.423 7.62654 232.651 13.3991 232.651 20.5199C232.651 27.6407 238.423 33.4132 245.544 33.4132Z" fill="#FFB8B8"/>
<path d="M309.42 77.6993C308.974 77.1166 308.528 76.5444 308.076 75.9879C307.494 75.2635 306.907 74.5618 306.318 73.8829C299.635 66.1713 292.527 61.3155 284.7 60.7958H284.69L284.574 60.7853L268.978 75.9879L263.676 81.1534L263.791 81.4369L266.652 88.5605H316.78C314.521 84.812 312.064 81.1865 309.42 77.6993V77.6993Z" fill="#2F2E41"/>
<path d="M231.523 25.7107L236.139 23.5419L235.496 16.8838L238.582 22.3938L240.788 21.3572L240.413 17.4733L242.213 20.6874L258.605 12.985C257.065 9.70884 254.287 7.17841 250.882 5.95039C247.477 4.72237 243.723 4.89736 240.447 6.43685L238.072 7.55315C234.795 9.09266 232.265 11.8706 231.037 15.2758C229.809 18.681 229.984 22.4345 231.523 25.7107V25.7107Z" fill="#2F2E41"/>
<path d="M338.345 259.746H69.1295C66.833 259.743 64.6314 258.83 63.0076 257.206C61.3838 255.582 60.4704 253.381 60.4678 251.084V89.3186C60.4696 87.6362 61.1388 86.0232 62.3284 84.8335C63.518 83.6439 65.1309 82.9747 66.8133 82.9727H340.551C342.263 82.9747 343.903 83.6554 345.114 84.8657C346.324 86.0759 347.005 87.7168 347.006 89.4283V251.084C347.004 253.381 346.09 255.582 344.467 257.206C342.843 258.83 340.641 259.743 338.345 259.746Z" fill="#F2F2F2"/>
<path d="M77.5286 251.084H329.945C332.173 251.084 334.309 250.199 335.885 248.624C337.46 247.049 338.345 244.913 338.345 242.685V105.385C338.345 103.158 337.46 101.021 335.885 99.446C334.309 97.8709 332.173 96.986 329.945 96.986H77.5286C75.301 96.986 73.1646 97.8709 71.5895 99.446C70.0143 101.021 69.1294 103.158 69.1294 105.385V242.685C69.1294 244.913 70.0143 247.049 71.5895 248.624C73.1646 250.199 75.301 251.084 77.5286 251.084Z" fill="white"/>
<path d="M346.886 88.8231H60.3462V84.4133C60.3495 82.1092 61.2667 79.9006 62.8964 78.2718C64.5261 76.6431 66.7353 75.7274 69.0394 75.7255H338.193C340.497 75.7274 342.706 76.6431 344.336 78.2718C345.965 79.9006 346.882 82.1092 346.886 84.4133V88.8231Z" fill="#FF6363"/>
<path d="M76.1451 84.5359C77.3869 84.5359 78.3937 83.5292 78.3937 82.2873C78.3937 81.0455 77.3869 80.0387 76.1451 80.0387C74.9032 80.0387 73.8965 81.0455 73.8965 82.2873C73.8965 83.5292 74.9032 84.5359 76.1451 84.5359Z" fill="white"/>
<path d="M84.6802 84.5359C85.9221 84.5359 86.9288 83.5292 86.9288 82.2873C86.9288 81.0455 85.9221 80.0387 84.6802 80.0387C83.4384 80.0387 82.4316 81.0455 82.4316 82.2873C82.4316 83.5292 83.4384 84.5359 84.6802 84.5359Z" fill="white"/>
<path d="M93.2149 84.5359C94.4568 84.5359 95.4635 83.5292 95.4635 82.2873C95.4635 81.0455 94.4568 80.0387 93.2149 80.0387C91.973 80.0387 90.9663 81.0455 90.9663 82.2873C90.9663 83.5292 91.973 84.5359 93.2149 84.5359Z" fill="white"/>
<path d="M211.613 221.309H189.04C187.718 221.307 186.45 220.781 185.516 219.846C184.581 218.911 184.055 217.644 184.053 216.321V193.749C184.055 192.426 184.581 191.159 185.516 190.224C186.45 189.289 187.718 188.763 189.04 188.762H211.613C212.935 188.763 214.203 189.289 215.138 190.224C216.073 191.159 216.599 192.426 216.6 193.749V216.321C216.599 217.644 216.073 218.911 215.138 219.846C214.203 220.781 212.935 221.307 211.613 221.309V221.309ZM189.04 189.811C187.996 189.813 186.996 190.228 186.258 190.966C185.519 191.704 185.104 192.705 185.103 193.749V216.321C185.104 217.365 185.519 218.366 186.258 219.104C186.996 219.842 187.996 220.257 189.04 220.259H211.613C212.657 220.257 213.658 219.842 214.396 219.104C215.134 218.366 215.549 217.365 215.55 216.321V193.749C215.549 192.705 215.134 191.704 214.396 190.966C213.658 190.228 212.657 189.813 211.613 189.811H189.04Z" fill="#CCCCCC"/>
<path d="M207.151 215.009H193.503C193.085 215.009 192.685 214.843 192.39 214.547C192.094 214.252 191.928 213.852 191.928 213.434V196.636C191.928 196.218 192.094 195.818 192.39 195.523C192.685 195.227 193.085 195.061 193.503 195.061H203.392C203.751 195.061 204.099 195.184 204.379 195.408L208.138 198.429C208.322 198.576 208.47 198.763 208.572 198.975C208.674 199.188 208.727 199.421 208.726 199.656V213.434C208.726 213.852 208.56 214.252 208.264 214.547C207.969 214.843 207.569 215.009 207.151 215.009V215.009ZM193.503 196.111C193.363 196.111 193.23 196.166 193.132 196.265C193.033 196.363 192.978 196.497 192.978 196.636V213.434C192.978 213.573 193.033 213.707 193.132 213.805C193.23 213.904 193.363 213.959 193.503 213.959H207.151C207.29 213.959 207.424 213.904 207.522 213.805C207.621 213.707 207.676 213.573 207.676 213.434V199.656C207.676 199.578 207.659 199.5 207.625 199.429C207.591 199.359 207.542 199.296 207.48 199.247L203.721 196.226C203.628 196.152 203.512 196.111 203.392 196.111H193.503Z" fill="#CCCCCC"/>
<path d="M204.526 202.41H196.127C195.988 202.41 195.854 202.355 195.756 202.257C195.657 202.158 195.602 202.025 195.602 201.885C195.602 201.746 195.657 201.613 195.756 201.514C195.854 201.416 195.988 201.36 196.127 201.36H204.526C204.665 201.36 204.799 201.416 204.897 201.514C204.996 201.613 205.051 201.746 205.051 201.885C205.051 202.025 204.996 202.158 204.897 202.257C204.799 202.355 204.665 202.41 204.526 202.41Z" fill="#CCCCCC"/>
<path d="M204.526 205.56H196.127C195.988 205.56 195.854 205.505 195.756 205.406C195.657 205.308 195.602 205.174 195.602 205.035C195.602 204.896 195.657 204.762 195.756 204.664C195.854 204.565 195.988 204.51 196.127 204.51H204.526C204.665 204.51 204.799 204.565 204.897 204.664C204.996 204.762 205.051 204.896 205.051 205.035C205.051 205.174 204.996 205.308 204.897 205.406C204.799 205.505 204.665 205.56 204.526 205.56Z" fill="#CCCCCC"/>
<path d="M204.526 208.71H196.127C195.988 208.71 195.854 208.654 195.756 208.556C195.657 208.457 195.602 208.324 195.602 208.185C195.602 208.046 195.657 207.912 195.756 207.814C195.854 207.715 195.988 207.66 196.127 207.66H204.526C204.665 207.66 204.799 207.715 204.897 207.814C204.996 207.912 205.051 208.046 205.051 208.185C205.051 208.324 204.996 208.457 204.897 208.556C204.799 208.654 204.665 208.71 204.526 208.71Z" fill="#CCCCCC"/>
<path d="M265.158 221.309H242.585C241.263 221.307 239.995 220.781 239.06 219.846C238.126 218.911 237.6 217.644 237.598 216.321V193.749C237.6 192.426 238.126 191.159 239.06 190.224C239.995 189.289 241.263 188.763 242.585 188.762H265.158C266.48 188.763 267.748 189.289 268.683 190.224C269.618 191.159 270.144 192.426 270.145 193.749V216.321C270.144 217.644 269.618 218.911 268.683 219.846C267.748 220.781 266.48 221.307 265.158 221.309V221.309ZM242.585 189.811C241.541 189.813 240.541 190.228 239.802 190.966C239.064 191.704 238.649 192.705 238.648 193.749V216.321C238.649 217.365 239.064 218.366 239.802 219.104C240.541 219.842 241.541 220.257 242.585 220.259H265.158C266.202 220.257 267.203 219.842 267.941 219.104C268.679 218.366 269.094 217.365 269.095 216.321V193.749C269.094 192.705 268.679 191.704 267.941 190.966C267.203 190.228 266.202 189.813 265.158 189.811H242.585Z" fill="#CCCCCC"/>
<path d="M261.221 210.809H246.523C246.105 210.809 245.705 210.643 245.41 210.348C245.114 210.052 244.948 209.652 244.948 209.235V200.835C244.948 200.418 245.114 200.018 245.41 199.722C245.705 199.427 246.105 199.261 246.523 199.261H261.221C261.639 199.261 262.039 199.427 262.334 199.722C262.63 200.018 262.796 200.418 262.796 200.835V209.235C262.796 209.652 262.63 210.052 262.334 210.348C262.039 210.643 261.639 210.809 261.221 210.809V210.809ZM246.523 200.31C246.383 200.311 246.25 200.366 246.152 200.464C246.053 200.563 245.998 200.696 245.998 200.835V209.235C245.998 209.374 246.053 209.507 246.152 209.606C246.25 209.704 246.383 209.759 246.523 209.76H261.221C261.36 209.759 261.494 209.704 261.592 209.606C261.691 209.507 261.746 209.374 261.746 209.235V200.835C261.746 200.696 261.691 200.563 261.592 200.464C261.494 200.366 261.36 200.311 261.221 200.31H246.523Z" fill="#CCCCCC"/>
<path d="M253.872 206.42C253.577 206.42 253.288 206.338 253.037 206.182L245.194 201.281C245.076 201.207 244.993 201.089 244.962 200.953C244.93 200.818 244.954 200.676 245.028 200.558C245.102 200.44 245.219 200.356 245.355 200.324C245.49 200.293 245.633 200.317 245.751 200.39L253.594 205.292C253.677 205.344 253.774 205.371 253.872 205.371C253.97 205.371 254.067 205.344 254.15 205.292L261.993 200.39C262.111 200.317 262.253 200.293 262.389 200.324C262.524 200.356 262.642 200.44 262.715 200.558C262.789 200.676 262.813 200.818 262.782 200.953C262.751 201.089 262.667 201.207 262.549 201.281L254.707 206.182C254.456 206.338 254.167 206.42 253.872 206.42V206.42Z" fill="#CCCCCC"/>
<path d="M158.068 221.309H135.495C134.173 221.307 132.906 220.781 131.971 219.846C131.036 218.911 130.51 217.644 130.508 216.321V193.749C130.51 192.426 131.036 191.159 131.971 190.224C132.906 189.289 134.173 188.763 135.495 188.762H158.068C159.39 188.763 160.658 189.289 161.593 190.224C162.528 191.159 163.054 192.426 163.055 193.749V216.321C163.054 217.644 162.528 218.911 161.593 219.846C160.658 220.781 159.39 221.307 158.068 221.309V221.309ZM135.495 189.811C134.452 189.813 133.451 190.228 132.713 190.966C131.975 191.704 131.559 192.705 131.558 193.749V216.321C131.559 217.365 131.975 218.366 132.713 219.104C133.451 219.842 134.452 220.257 135.495 220.259H158.068C159.112 220.257 160.113 219.842 160.851 219.104C161.589 218.366 162.004 217.365 162.005 216.321V193.749C162.004 192.705 161.589 191.704 160.851 190.966C160.113 190.228 159.112 189.813 158.068 189.811H135.495Z" fill="#CCCCCC"/>
<path d="M154.131 210.809H139.432C139.015 210.809 138.614 210.643 138.319 210.348C138.024 210.052 137.858 209.652 137.857 209.235V200.835C137.858 200.418 138.024 200.018 138.319 199.722C138.614 199.427 139.015 199.261 139.432 199.261H154.131C154.548 199.261 154.949 199.427 155.244 199.722C155.539 200.018 155.705 200.418 155.706 200.835V209.235C155.705 209.652 155.539 210.052 155.244 210.348C154.949 210.643 154.548 210.809 154.131 210.809V210.809ZM139.432 200.31C139.293 200.311 139.16 200.366 139.061 200.464C138.963 200.563 138.907 200.696 138.907 200.835V209.235C138.907 209.374 138.963 209.507 139.061 209.606C139.16 209.704 139.293 209.759 139.432 209.76H154.131C154.27 209.759 154.404 209.704 154.502 209.606C154.6 209.507 154.656 209.374 154.656 209.235V200.835C154.656 200.696 154.6 200.563 154.502 200.464C154.404 200.366 154.27 200.311 154.131 200.31H139.432Z" fill="#CCCCCC"/>
<path d="M151.801 210.809H141.237C141.053 210.81 140.872 210.761 140.712 210.669C140.552 210.577 140.42 210.444 140.328 210.285C140.235 210.125 140.187 209.944 140.187 209.76C140.187 209.575 140.236 209.394 140.328 209.235L143.51 203.723C143.602 203.563 143.735 203.43 143.894 203.338C144.054 203.246 144.235 203.198 144.419 203.198C144.603 203.198 144.785 203.246 144.944 203.338C145.104 203.43 145.236 203.563 145.328 203.723L147.384 207.282L148.574 205.22C148.666 205.06 148.799 204.928 148.959 204.836C149.118 204.744 149.299 204.695 149.484 204.695C149.668 204.695 149.849 204.744 150.009 204.836C150.168 204.928 150.301 205.06 150.393 205.22L152.711 209.235C152.803 209.394 152.851 209.575 152.851 209.76C152.851 209.944 152.803 210.125 152.71 210.285C152.618 210.444 152.486 210.577 152.326 210.669C152.166 210.761 151.985 210.81 151.801 210.809H151.801ZM151.801 209.76L149.483 205.745L147.838 208.595C147.792 208.675 147.726 208.741 147.646 208.787C147.566 208.833 147.476 208.857 147.384 208.857V208.857C147.292 208.857 147.201 208.833 147.121 208.787C147.041 208.741 146.975 208.675 146.929 208.595L144.419 204.248L141.237 209.76H151.801Z" fill="#CCCCCC"/>
<path d="M152.556 203.46C153.136 203.46 153.606 202.99 153.606 202.41C153.606 201.83 153.136 201.36 152.556 201.36C151.976 201.36 151.506 201.83 151.506 202.41C151.506 202.99 151.976 203.46 152.556 203.46Z" fill="#CCCCCC"/>
<path d="M403.596 340.247L397.16 340.247L394.098 315.423L403.597 315.423L403.596 340.247Z" fill="#FFB8B8"/>
<path d="M405.237 346.486L384.485 346.485V346.222C384.485 345.162 384.694 344.111 385.1 343.131C385.506 342.151 386.101 341.261 386.851 340.511C387.601 339.761 388.492 339.166 389.471 338.76C390.451 338.354 391.502 338.145 392.562 338.145H392.563L405.237 338.146L405.237 346.486Z" fill="#2F2E41"/>
<path d="M429.843 340.247L423.407 340.247L420.346 315.423L429.844 315.423L429.843 340.247Z" fill="#FFB8B8"/>
<path d="M431.484 346.486L410.733 346.485V346.222C410.733 345.162 410.942 344.111 411.348 343.131C411.754 342.151 412.349 341.261 413.099 340.511C413.849 339.761 414.739 339.166 415.719 338.76C416.699 338.354 417.749 338.145 418.81 338.145H418.811L431.485 338.146L431.484 346.486Z" fill="#2F2E41"/>
<path d="M427.914 329.486L421.954 327.673C421.509 327.538 421.115 327.275 420.819 326.917C420.523 326.559 420.34 326.122 420.292 325.661L414.735 272.994C414.73 272.93 414.702 272.871 414.655 272.827C414.609 272.784 414.547 272.759 414.483 272.759C414.42 272.753 414.356 272.772 414.306 272.812C414.256 272.852 414.223 272.911 414.215 272.974L404.907 323.999C404.851 324.309 404.733 324.604 404.561 324.867C404.389 325.131 404.166 325.357 403.905 325.533C403.644 325.709 403.351 325.831 403.042 325.892C402.733 325.953 402.415 325.952 402.107 325.889L394.489 324.319C393.931 324.203 393.433 323.888 393.087 323.434C392.742 322.979 392.572 322.415 392.609 321.846L398.271 238.215L436.665 234.072L430.959 327.37C430.923 327.969 430.659 328.533 430.221 328.945C429.784 329.357 429.206 329.587 428.605 329.589C428.371 329.589 428.138 329.554 427.914 329.486V329.486Z" fill="#2F2E41"/>
<path d="M427.878 165.385C434.999 165.385 440.771 159.612 440.771 152.492C440.771 145.371 434.999 139.598 427.878 139.598C420.757 139.598 414.984 145.371 414.984 152.492C414.984 159.612 420.757 165.385 427.878 165.385Z" fill="#FFB8B8"/>
<path d="M398.211 238.706L406.536 186.289C406.979 183.502 408.01 180.841 409.561 178.484C411.112 176.126 413.147 174.126 415.531 172.616C417.915 171.107 420.593 170.122 423.388 169.728C426.182 169.334 429.028 169.539 431.737 170.331V170.331C436.473 171.7 440.528 174.786 443.11 178.986C445.692 183.185 446.616 188.197 445.701 193.041L436.991 239.852L398.211 238.706Z" fill="#FF6363"/>
<path d="M431.437 248.084C432.081 247.659 432.624 247.098 433.027 246.44C433.431 245.782 433.685 245.044 433.773 244.277C433.86 243.511 433.778 242.734 433.533 242.002C433.288 241.271 432.886 240.602 432.354 240.042L440.961 223.374L431.268 224.409L424.58 240.078C423.7 241.034 423.201 242.279 423.177 243.578C423.154 244.877 423.607 246.14 424.452 247.127C425.298 248.114 426.475 248.756 427.763 248.933C429.05 249.109 430.357 248.807 431.437 248.084V248.084Z" fill="#FFB8B8"/>
<path d="M433.28 237.102C432.804 237.035 432.359 236.824 432.006 236.498L428.713 233.455C428.357 233.125 428.112 232.693 428.009 232.219C427.906 231.744 427.952 231.25 428.14 230.802L434.721 215.201L433.788 184.376C433.922 183.385 434.25 182.431 434.754 181.567C435.257 180.703 435.926 179.946 436.722 179.341C437.518 178.736 438.425 178.293 439.392 178.038C440.359 177.784 441.367 177.723 442.357 177.858C443.348 177.993 444.303 178.322 445.166 178.826C446.03 179.33 446.785 180 447.39 180.796C447.995 181.593 448.436 182.5 448.69 183.468C448.944 184.435 449.004 185.443 448.868 186.433L450.464 205.81C450.95 211.692 449.282 217.549 445.773 222.292L435.509 236.168C435.311 236.435 435.06 236.657 434.771 236.82C434.482 236.983 434.162 237.084 433.831 237.115C433.648 237.132 433.463 237.128 433.28 237.102V237.102Z" fill="#FF6363"/>
<path d="M353.629 145.467C353.769 146.226 354.074 146.944 354.523 147.572C354.971 148.201 355.552 148.723 356.224 149.102C356.896 149.482 357.643 149.709 358.412 149.769C359.182 149.828 359.955 149.718 360.677 149.447L372.67 163.872L375.497 154.542L363.675 142.275C363.138 141.091 362.186 140.146 360.999 139.618C359.812 139.09 358.472 139.015 357.234 139.409C355.996 139.802 354.945 140.636 354.28 141.753C353.616 142.869 353.384 144.191 353.629 145.467V145.467Z" fill="#FFB8B8"/>
<path d="M363.023 151.446C363.271 151.034 363.638 150.707 364.076 150.508L368.162 148.662C368.605 148.463 369.098 148.405 369.575 148.496C370.052 148.587 370.49 148.822 370.829 149.169L382.629 161.312L411.378 172.471C412.239 172.981 412.99 173.655 413.59 174.456C414.189 175.256 414.625 176.167 414.872 177.136C415.12 178.105 415.174 179.113 415.031 180.103C414.888 181.093 414.552 182.045 414.041 182.905C413.53 183.765 412.855 184.515 412.054 185.114C411.253 185.713 410.342 186.147 409.372 186.394C408.403 186.64 407.395 186.693 406.405 186.549C405.415 186.405 404.464 186.068 403.604 185.556L385.138 179.471C379.533 177.625 374.79 173.806 371.79 168.724L363.014 153.862C362.846 153.577 362.739 153.258 362.702 152.929C362.664 152.599 362.696 152.265 362.796 151.949C362.852 151.773 362.928 151.604 363.023 151.446V151.446Z" fill="#FF6363"/>
<path opacity="0.1" d="M438.335 197.199L437.81 213.997L428.14 230.802L436.214 212.075L438.335 197.199Z" fill="black"/>
<path d="M426.4 154.915C425.591 155.02 424.77 154.828 424.091 154.374C423.413 153.92 422.922 153.235 422.71 152.446C422.505 151.538 422.058 150.703 421.415 150.031C420.772 149.358 419.958 148.873 419.061 148.628C416.696 148.087 413.805 149.201 412.072 147.409C411.701 147 411.432 146.508 411.289 145.975C411.145 145.442 411.13 144.882 411.245 144.342C411.564 142.6 412.81 141.285 414.165 140.233C417.018 138.029 420.47 136.739 424.069 136.531C425.932 136.478 427.796 136.57 429.645 136.809C431.58 136.931 433.494 137.281 435.347 137.851C437.459 138.648 439.336 139.964 440.804 141.678C442.272 143.392 443.284 145.448 443.748 147.657C444.171 149.873 444.106 152.154 443.557 154.342C443.008 156.53 441.988 158.572 440.568 160.325C438.868 162.441 436.677 164.11 434.184 165.185C433.59 165.465 432.91 165.5 432.291 165.281C430.739 164.664 430.992 162.741 431.7 161.458C432.458 160.085 433.623 158.756 433.014 157.086C432.709 156.311 432.123 155.68 431.372 155.319C429.829 154.532 428.103 154.718 426.444 154.91L426.4 154.915Z" fill="#2F2E41"/>
<path d="M349.32 162.196H189.735C187.439 162.193 185.237 161.28 183.613 159.656C181.989 158.032 181.076 155.83 181.073 153.534V119.412C181.076 117.116 181.989 114.914 183.613 113.29C185.237 111.666 187.439 110.753 189.735 110.75H349.32C351.617 110.753 353.818 111.666 355.442 113.29C357.066 114.914 357.979 117.116 357.982 119.412V153.534C357.979 155.83 357.066 158.032 355.442 159.656C353.818 161.28 351.617 162.193 349.32 162.196V162.196Z" fill="white"/>
<path d="M349.32 162.458H189.735C187.369 162.455 185.1 161.514 183.427 159.841C181.754 158.168 180.813 155.9 180.811 153.534V119.412C180.813 117.046 181.754 114.778 183.427 113.105C185.1 111.432 187.369 110.491 189.735 110.488H349.32C351.686 110.491 353.954 111.432 355.627 113.105C357.3 114.778 358.241 117.046 358.244 119.412V153.534C358.241 155.9 357.3 158.168 355.627 159.841C353.954 161.514 351.686 162.455 349.32 162.458ZM189.735 111.538C187.647 111.54 185.646 112.371 184.169 113.847C182.693 115.323 181.863 117.324 181.86 119.412V153.534C181.863 155.622 182.693 157.623 184.169 159.099C185.646 160.576 187.647 161.406 189.735 161.408H349.32C351.408 161.406 353.409 160.576 354.885 159.099C356.361 157.623 357.192 155.622 357.194 153.534V119.412C357.192 117.324 356.361 115.323 354.885 113.847C353.409 112.371 351.408 111.54 349.32 111.538H189.735Z" fill="#3F3D56"/>
<path d="M329.897 153.796H209.158C206.861 153.794 204.66 152.88 203.036 151.257C201.412 149.633 200.499 147.431 200.496 145.135V127.286C200.499 124.99 201.412 122.788 203.036 121.165C204.66 119.541 206.861 118.627 209.158 118.625H329.897C332.193 118.627 334.395 119.541 336.018 121.165C337.642 122.788 338.556 124.99 338.558 127.286V145.135C338.556 147.431 337.642 149.633 336.018 151.257C334.395 152.88 332.193 153.794 329.897 153.796V153.796Z" fill="#F2F2F2"/>
<path d="M235.14 144.176C240.861 144.176 245.499 139.539 245.499 133.818C245.499 128.097 240.861 123.459 235.14 123.459C229.419 123.459 224.782 128.097 224.782 133.818C224.782 139.539 229.419 144.176 235.14 144.176Z" fill="#FF6584"/>
<path d="M322.394 152.751L307.773 140.488L293.404 128.437C293.025 128.119 292.545 127.946 292.05 127.947C291.556 127.947 291.077 128.123 290.699 128.443L276.377 140.549L272.878 143.506L267.603 139.082L251.573 125.638C251.194 125.32 250.714 125.146 250.22 125.147C249.725 125.148 249.246 125.323 248.868 125.643L232.89 139.149L216.66 152.868C216.578 152.937 216.519 153.03 216.491 153.135C216.464 153.239 216.469 153.349 216.506 153.45C216.543 153.551 216.61 153.638 216.699 153.7C216.787 153.761 216.892 153.794 217 153.794L250.275 153.73L260.807 153.709L260.704 153.796L292.1 153.736L322.058 153.678C322.165 153.678 322.27 153.645 322.358 153.583C322.447 153.521 322.513 153.434 322.55 153.332C322.587 153.231 322.592 153.121 322.564 153.017C322.536 152.913 322.476 152.82 322.394 152.751Z" fill="#3F3D56"/>
<path d="M459.475 347.241H358.684C358.545 347.241 358.411 347.186 358.313 347.087C358.214 346.989 358.159 346.855 358.159 346.716C358.159 346.577 358.214 346.443 358.313 346.345C358.411 346.246 358.545 346.191 358.684 346.191H459.475C459.614 346.191 459.748 346.246 459.846 346.345C459.944 346.443 460 346.577 460 346.716C460 346.855 459.944 346.989 459.846 347.087C459.748 347.186 459.614 347.241 459.475 347.241Z" fill="#CCCCCC"/>
<path d="M317.1 69.2475C316.681 68.5662 316.127 67.9774 315.473 67.5172C314.818 67.0569 314.077 66.7347 313.294 66.5703C313.007 66.51 312.716 66.4731 312.423 66.46L272.427 30.7003C271.641 29.8928 270.593 29.3921 269.471 29.2882C269.25 29.2628 269.027 29.2558 268.805 29.2672C267.882 29.3092 266.991 29.6191 266.242 30.1591C265.492 30.6991 264.916 31.4457 264.584 32.3078C264.253 33.1699 264.179 34.11 264.373 35.0132C264.567 35.9164 265.02 36.7435 265.676 37.3935L280.989 50.743L306.134 72.6597C306.155 73.0725 306.216 73.4822 306.318 73.8828C306.619 75.0435 307.265 76.0852 308.172 76.8699C309.078 77.6546 310.202 78.1452 311.394 78.2767C312.481 78.4037 313.582 78.2217 314.57 77.7517C315.354 77.3853 316.048 76.8533 316.607 76.1926C316.664 76.1244 316.717 76.0614 316.77 75.9879C317.504 75.0313 317.929 73.8737 317.988 72.6694C318.047 71.465 317.737 70.2713 317.1 69.2475H317.1Z" fill="#FFB8B8"/>
<path d="M248.689 103.711L248.316 88.5605L248.001 75.9879L247.786 67.1897L247.36 50.0396C247.276 49.1213 246.927 48.2475 246.354 47.5246C245.782 46.8018 245.011 46.2612 244.137 45.969C243.262 45.6767 242.321 45.6454 241.429 45.8789C240.537 46.1123 239.733 46.6004 239.113 47.2836C238.968 47.4397 238.836 47.6083 238.72 47.7875C238.073 48.7131 237.783 49.8408 237.901 50.9635L238.835 75.9879L239.303 88.5605L239.901 104.598C239.728 104.833 239.572 105.081 239.434 105.338C239.06 106.046 238.835 106.822 238.771 107.62C238.707 108.418 238.806 109.22 239.061 109.979C239.328 110.774 239.76 111.504 240.329 112.12C240.898 112.736 241.592 113.225 242.363 113.553C243.135 113.882 243.968 114.044 244.806 114.028C245.645 114.011 246.471 113.818 247.229 113.459C248.11 113.042 248.875 112.415 249.456 111.633C250.037 110.851 250.416 109.938 250.56 108.974C250.705 108.011 250.609 107.026 250.283 106.108C249.956 105.19 249.409 104.367 248.689 103.711H248.689Z" fill="#FFB8B8"/>
<path d="M284.7 60.7958L280.989 50.743L274.983 34.459C274.55 33.2742 273.855 32.2022 272.951 31.3225C272.047 30.4428 270.956 29.778 269.76 29.3775C269.666 29.346 269.566 29.3145 269.471 29.2882C268.313 28.9365 267.091 28.8398 265.892 29.0047C264.692 29.1696 263.542 29.5923 262.521 30.2436L242.295 43.0734C240.442 44.2457 239.118 46.0922 238.602 48.2227C238.086 50.3532 238.418 52.601 239.528 54.4911C242.058 58.8649 244.814 63.1036 247.786 67.1897C250.143 70.3972 254.531 70.7384 255.293 75.9879H270.206L285.304 62.4337L284.7 60.7958Z" fill="#CCCCCC"/>
<path d="M53.1064 183.656C59.8244 183.656 65.2704 178.21 65.2704 171.492C65.2704 164.774 59.8244 159.328 53.1064 159.328C46.3884 159.328 40.9424 164.774 40.9424 171.492C40.9424 178.21 46.3884 183.656 53.1064 183.656Z" fill="#A0616A"/>
<path d="M82.9694 163.119C83.0893 163.215 83.2054 163.316 83.3179 163.423C83.8767 163.949 84.318 164.588 84.6128 165.296C84.9076 166.005 85.0494 166.768 85.0287 167.536C85.008 168.303 84.8254 169.058 84.4929 169.749C84.1603 170.441 83.6853 171.055 83.099 171.551C82.9623 171.666 82.8197 171.773 82.6718 171.873L83.495 199.666C83.5185 200.576 83.2479 201.469 82.7236 202.213C82.1992 202.957 81.449 203.512 80.5842 203.796L80.534 203.807L57.967 206.21C57.3535 206.275 56.7331 206.218 56.1417 206.043C55.5503 205.867 54.9996 205.575 54.5214 205.186C54.0432 204.796 53.6469 204.315 53.3556 203.771C53.0642 203.227 52.8834 202.631 52.8237 202.017C52.764 201.403 52.8265 200.783 53.0077 200.193C53.1889 199.604 53.4851 199.055 53.8792 198.581C54.2734 198.106 54.7577 197.714 55.3041 197.428C55.8506 197.141 56.4484 196.966 57.063 196.912L73.1497 195.495L75.9318 171.425C75.7498 171.264 75.5794 171.091 75.4218 170.906C74.5495 169.873 74.092 168.554 74.1381 167.203C74.1843 165.852 74.7307 164.567 75.6714 163.596C76.6121 162.626 77.8798 162.04 79.2285 161.952C80.5771 161.863 81.9104 162.28 82.9694 163.119H82.9694Z" fill="#A0616A"/>
<path d="M73.1402 340.785H79.2123L82.1006 317.365H73.1392L73.1402 340.785Z" fill="#A0616A"/>
<path d="M71.5918 338.802L83.5491 338.802H83.5496C84.5503 338.802 85.5412 338.999 86.4658 339.382C87.3903 339.765 88.2304 340.326 88.938 341.034C89.6456 341.741 90.2069 342.581 90.5898 343.506C90.9728 344.43 91.1699 345.421 91.1699 346.422V346.67L71.5921 346.67L71.5918 338.802Z" fill="#2F2E41"/>
<path d="M12.791 332.39L18.008 335.496L32.472 316.851L24.772 312.267L12.791 332.39Z" fill="#A0616A"/>
<path d="M12.4743 329.894L22.7485 336.011L22.7489 336.012C23.6087 336.524 24.3593 337.2 24.9578 338.002C25.5562 338.804 25.9908 339.716 26.2368 340.686C26.4828 341.656 26.5353 342.665 26.3913 343.655C26.2473 344.646 25.9097 345.598 25.3977 346.458L25.271 346.67L8.44922 336.655L12.4743 329.894Z" fill="#2F2E41"/>
<path d="M80.6449 332.513H73.8459C73.2954 332.514 72.7641 332.311 72.3547 331.942C71.9454 331.574 71.6871 331.067 71.6298 330.52L64.7754 266.089C64.7582 265.926 64.688 265.774 64.5757 265.656C64.4635 265.538 64.3154 265.46 64.1544 265.434C63.9933 265.408 63.8283 265.436 63.6846 265.513C63.541 265.59 63.4268 265.713 63.3596 265.861L50.9941 293.242L29.1018 328.94C28.8184 329.398 28.3797 329.738 27.866 329.899C27.3523 330.059 26.7979 330.029 26.3044 329.815L17.5585 325.967C17.2694 325.839 17.0106 325.652 16.7993 325.417C16.588 325.182 16.4291 324.905 16.333 324.604C16.237 324.303 16.206 323.985 16.2422 323.671C16.2784 323.357 16.3809 323.055 16.5429 322.783L36.668 289.086L42.8402 260.694C40.8989 248.381 49.221 230.075 49.3054 229.891L49.3466 229.802L72.2699 220.842L72.3849 220.983C81.4251 250.65 86.9339 282.577 82.8664 330.471C82.8163 331.027 82.5609 331.544 82.1502 331.921C81.7394 332.299 81.2028 332.51 80.6449 332.513V332.513Z" fill="#2F2E41"/>
<path d="M48.423 232.802L48.3163 232.578C48.2653 232.47 43.1681 221.72 39.2388 210.23C38.4837 208.008 38.1982 205.653 38.4005 203.315C38.6028 200.977 39.2884 198.707 40.414 196.647C41.5541 194.567 43.114 192.746 44.9947 191.3C46.8754 189.853 49.036 188.814 51.3396 188.246V188.246C55.3386 187.287 59.549 187.797 63.2035 189.683C66.858 191.569 69.7136 194.704 71.2498 198.519C74.3666 206.313 73.3732 214.632 72.4384 221.175L72.4198 221.306L72.3006 221.363L48.423 232.802Z" fill="#3F3D56"/>
<path d="M67.855 164.621H48.54V156.202C52.7795 154.518 56.9279 153.085 59.4357 156.202C61.6686 156.202 63.8101 157.089 65.389 158.668C66.968 160.247 67.855 162.388 67.855 164.621V164.621Z" fill="#2F2E41"/>
<path d="M47.4707 154.716C35.9239 154.716 32.6919 169.19 32.6919 177.355C32.6919 181.908 34.7513 183.537 37.9874 184.088L39.1302 177.993L41.807 184.351C42.716 184.355 43.6709 184.337 44.661 184.319L45.5685 182.45L47.5924 184.286C55.6981 184.298 62.2493 185.479 62.2493 177.355C62.2493 169.19 59.4149 154.716 47.4707 154.716Z" fill="#2F2E41"/>
<path d="M101.316 347.241H0.524951C0.385726 347.241 0.252202 347.186 0.153754 347.087C0.0553068 346.989 0 346.855 0 346.716C0 346.577 0.0553068 346.443 0.153754 346.345C0.252202 346.246 0.385726 346.191 0.524951 346.191H101.316C101.455 346.191 101.588 346.246 101.687 346.345C101.785 346.443 101.841 346.577 101.841 346.716C101.841 346.855 101.785 346.989 101.687 347.087C101.588 347.186 101.455 347.241 101.316 347.241Z" fill="#CCCCCC"/>
<path d="M103.211 174.532H80.6379C79.3157 174.531 78.0481 174.005 77.1132 173.07C76.1783 172.135 75.6524 170.867 75.6509 169.545V146.972C75.6524 145.65 76.1783 144.382 77.1132 143.447C78.0481 142.512 79.3157 141.987 80.6379 141.985H103.211C104.533 141.987 105.801 142.512 106.736 143.447C107.67 144.382 108.196 145.65 108.198 146.972V169.545C108.196 170.867 107.67 172.135 106.736 173.07C105.801 174.005 104.533 174.531 103.211 174.532V174.532Z" fill="white"/>
<path d="M103.211 174.532H80.6379C79.3157 174.531 78.0481 174.005 77.1132 173.07C76.1783 172.135 75.6524 170.867 75.6509 169.545V146.972C75.6524 145.65 76.1783 144.382 77.1132 143.447C78.0481 142.512 79.3157 141.987 80.6379 141.985H103.211C104.533 141.987 105.801 142.512 106.736 143.447C107.67 144.382 108.196 145.65 108.198 146.972V169.545C108.196 170.867 107.67 172.135 106.736 173.07C105.801 174.005 104.533 174.531 103.211 174.532V174.532ZM80.6379 143.035C79.5941 143.036 78.5933 143.451 77.8552 144.189C77.1171 144.928 76.7019 145.928 76.7008 146.972V169.545C76.7019 170.589 77.1171 171.59 77.8552 172.328C78.5933 173.066 79.5941 173.481 80.6379 173.482H103.211C104.255 173.481 105.255 173.066 105.994 172.328C106.732 171.59 107.147 170.589 107.148 169.545V146.972C107.147 145.928 106.732 144.928 105.994 144.189C105.255 143.451 104.255 143.036 103.211 143.035H80.6379Z" fill="#3F3D56"/>
<path d="M99.2735 165.345H84.5749C84.1573 165.345 83.757 165.179 83.4618 164.884C83.1665 164.588 83.0005 164.188 83 163.771V152.747C83.0005 152.329 83.1665 151.929 83.4618 151.633C83.757 151.338 84.1573 151.172 84.5749 151.172H88.7127C88.9818 151.171 89.2467 151.239 89.4816 151.37C89.7166 151.502 89.9137 151.691 90.054 151.921L91.208 153.796H99.2735C99.691 153.797 100.091 153.963 100.387 154.258C100.682 154.553 100.848 154.954 100.848 155.371V163.771C100.848 164.188 100.682 164.588 100.387 164.884C100.091 165.179 99.691 165.345 99.2735 165.345V165.345Z" fill="#FF6363"/>
<path d="M98.7954 170.915C98.8688 171.049 98.9366 171.187 98.9989 171.33C99.3096 172.032 99.4685 172.791 99.4652 173.559C99.4619 174.327 99.2964 175.085 98.9795 175.784C98.6627 176.483 98.2017 177.108 97.6267 177.617C97.0517 178.125 96.3757 178.507 95.643 178.736C95.4725 178.789 95.2994 178.832 95.1243 178.867L85.0981 204.802C84.7666 205.65 84.1707 206.368 83.3987 206.85C82.6268 207.332 81.7199 207.553 80.8128 207.479L80.7624 207.469L59.0311 200.927C58.4403 200.749 57.8906 200.456 57.4137 200.064C56.9368 199.673 56.5422 199.191 56.2527 198.646C55.9631 198.101 55.7845 197.504 55.7269 196.89C55.6694 196.275 55.7341 195.656 55.9174 195.067C56.1006 194.477 56.3988 193.93 56.7947 193.457C57.1906 192.984 57.6763 192.594 58.2239 192.309C58.7714 192.025 59.3698 191.851 59.9847 191.799C60.5995 191.747 61.2186 191.818 61.8061 192.007L77.1821 196.943L89.0861 175.839C88.9809 175.62 88.8912 175.394 88.8177 175.162C88.4144 173.872 88.5049 172.479 89.0716 171.252C89.6383 170.025 90.6407 169.052 91.8842 168.523C93.1277 167.993 94.5235 167.945 95.8007 168.387C97.0778 168.829 98.1451 169.73 98.7954 170.915H98.7954Z" fill="#A0616A"/>
</g>
<defs>
<clipPath id="clip0_28_2">
<rect width="460" height="347.241" fill="white"/>
</clipPath>
</defs>
</svg>
