<svg width="49" height="21" viewBox="0 0 49 21" fill="none" xmlns="http://www.w3.org/2000/svg">
<path d="M14.8867 20H19L9.96484 0.640625H9.84766L0.824219 20H4.92578L6.13281 17.3633H13.6914L14.8867 20ZM7.60938 14.1289L9.91797 9.07812L12.2148 14.1289H7.60938ZM28.1992 20.3633C31.0586 20.3633 33.0859 19.1211 34.75 17.4688L32.5703 14.3984C31.3164 15.6289 29.8164 16.5547 28.082 16.5547C25.1641 16.5547 22.1641 13.9531 22.1641 10.5898C22.1641 7.28516 25.0586 4.58984 28.0938 4.58984C29.7227 4.58984 31.2695 5.36328 32.5586 6.62891L34.75 3.64062C32.7695 1.73047 30.5898 0.757812 28.1289 0.722656C22.8086 0.722656 18.3203 5.23438 18.3203 10.5664C18.3203 15.875 22.75 20.3633 28.1992 20.3633ZM48.2734 4.84766V1.10938H36.8828V20H48.2734V16.2266H40.6797V12.3242H47.1953V8.53906H40.6797V4.84766H48.2734Z" fill="#44AAAC"/>
</svg>
