<svg width="122" height="60" viewBox="0 0 122 60" fill="none" xmlns="http://www.w3.org/2000/svg">
<path d="M103.915 26.4238C105.913 21.598 105.581 16.3323 102.986 11.6993C100.391 7.06633 95.7274 3.41447 89.9461 1.48759C84.1648 -0.439283 77.7003 -0.49624 71.8694 1.32832C66.0384 3.15289 61.2796 6.72173 58.5621 11.3079C56.0804 10.1644 53.3125 9.49569 50.4675 9.35223C47.6226 9.20877 44.7748 9.59433 42.1392 10.4798C39.5036 11.3653 37.1492 12.7275 35.2536 14.4637C33.3579 16.1998 31.9707 18.2645 31.1966 20.5019C27.806 19.7411 24.2551 19.5807 20.7822 20.0313C17.3093 20.482 13.9948 21.5333 11.0611 23.1147C8.12737 24.6961 5.64239 26.7711 3.77289 29.2002C1.9034 31.6294 0.692653 34.3567 0.221913 37.1989C-0.248827 40.0411 0.0313328 42.9326 1.04359 45.6793C2.05584 48.4259 3.77678 50.9642 6.09088 53.1238C8.40498 55.2833 11.2587 57.0142 14.4605 58.2002C17.6624 59.3862 21.1382 59.9998 24.6548 60H101.331C106.588 60.0008 111.648 58.3674 115.481 55.4322C119.313 52.4971 121.63 48.481 121.959 44.2017C122.289 39.9223 120.606 35.7015 117.253 32.3986C113.901 29.0957 109.131 26.9591 103.915 26.4238Z" fill="white"/>
<path d="M26.3086 49.5894H30.4219L21.3867 30.23H21.2695L12.2461 49.5894H16.3477L17.5547 46.9527H25.1133L26.3086 49.5894ZM19.0312 43.7183L21.3398 38.6675L23.6367 43.7183H19.0312ZM39.6211 49.9527C42.4805 49.9527 44.5078 48.7105 46.1719 47.0582L43.9922 43.9878C42.7383 45.2183 41.2383 46.1441 39.5039 46.1441C36.5859 46.1441 33.5859 43.5425 33.5859 40.1792C33.5859 36.8746 36.4805 34.1792 39.5156 34.1792C41.1445 34.1792 42.6914 34.9527 43.9805 36.2183L46.1719 33.23C44.1914 31.3199 42.0117 30.3472 39.5508 30.3121C34.2305 30.3121 29.7422 34.8238 29.7422 40.1558C29.7422 45.4644 34.1719 49.9527 39.6211 49.9527ZM59.6953 34.4371V30.6988H48.3047V49.5894H59.6953V45.816H52.1016V41.9136H58.6172V38.1285H52.1016V34.4371H59.6953Z" fill="#44AAAC"/>
<path d="M67.5507 37.5966H67.6825L69.7186 32.3769L71.7645 37.5966H71.9013L74.3427 29.6767H73.3856L71.6767 35.4238L69.7626 30.3164H69.6942L67.7704 35.4238L66.0614 29.6767H65.1093L67.5507 37.5966ZM79.9188 30.5507V29.6767H75.2948V37.5478H79.9188V36.664H76.1835V33.9296H79.4208V33.041H76.1835V30.5507H79.9188ZM84.7186 33.1142C85.119 33.1142 85.7392 32.4941 85.7392 31.6396C85.7392 30.6044 84.7919 29.6767 83.4784 29.6767H81.33V37.5478H84.245C85.7489 37.5478 86.7352 36.3906 86.7352 35.1455C86.7352 33.9589 85.7294 33.1142 84.7186 33.1142ZM83.5272 30.541C84.2743 30.541 84.9042 31.0683 84.9042 31.7421C84.9042 32.4062 84.3768 32.9287 83.5224 32.9238H82.2138V30.541H83.5272ZM84.1718 36.6787H82.2138V33.7148H84.1278C85.1679 33.7099 85.8661 34.3496 85.8661 35.0869C85.8661 36 85.0702 36.6787 84.1718 36.6787ZM68.0048 43.6718L65.8124 43.6767V51.5478H68.0048C70.4559 51.5478 72.0184 50.0195 72.0184 47.6171C72.0184 45.205 70.4559 43.6718 68.0048 43.6718ZM68.0145 50.6591H66.7011V44.5556H67.9999C69.9042 44.5556 71.1249 45.7568 71.1249 47.6171C71.1249 49.4677 69.9091 50.6591 68.0145 50.6591ZM77.8876 44.5507V43.6767H73.2636V51.5478H77.8876V50.664H74.1522V47.9296H77.3895V47.041H74.1522V44.5507H77.8876ZM81.4765 51.6552C82.9901 51.6552 84.245 50.7714 84.245 49.414C84.245 48.1494 83.1268 47.6025 81.9452 47.124C80.9296 46.7334 80.0653 46.455 80.0653 45.6933C80.0653 44.9902 80.788 44.4335 81.6327 44.4335C82.3407 44.4335 82.9755 44.8339 83.2294 45.4248L83.8983 44.9755C83.6054 44.1992 82.8095 43.5595 81.6425 43.5595C80.2606 43.5595 79.1718 44.4628 79.1718 45.6738C79.1718 46.8896 80.2509 47.3632 81.2177 47.7392C82.2235 48.1201 83.3515 48.5449 83.3515 49.4287C83.3515 50.205 82.5116 50.7617 81.4813 50.7617C80.6464 50.7617 79.8407 50.3125 79.4843 49.6386L78.8007 50.1416C79.1767 50.9814 80.1825 51.6552 81.4765 51.6552ZM85.412 51.5478H86.3007V43.6767H85.412V51.5478ZM95.3192 47.3779H91.579V48.1787H94.4013C94.4061 48.2226 94.4061 48.2763 94.4061 48.3349C94.4061 49.7265 93.1952 50.7568 91.6571 50.7568C89.8407 50.7568 88.4491 49.3457 88.4491 47.6171C88.4491 45.8349 89.9237 44.458 91.5839 44.458C92.3749 44.458 93.3319 44.8828 93.9423 45.4882L94.4403 44.7509C93.7323 44.0625 92.5556 43.5742 91.5888 43.5693C89.3671 43.5693 87.5458 45.3955 87.5458 47.6171C87.5458 49.8388 89.3622 51.6552 91.6229 51.6552C93.6542 51.6552 95.3534 50.1464 95.3534 47.9394C95.3534 47.7148 95.3339 47.5048 95.3192 47.3779ZM102.043 43.6572V49.541L96.6522 43.5546H96.6034V51.5576H97.4921V45.6787L102.888 51.6699H102.932V43.6572H102.043ZM106.769 51.6552C108.283 51.6552 109.538 50.7714 109.538 49.414C109.538 48.1494 108.42 47.6025 107.238 47.124C106.223 46.7334 105.358 46.455 105.358 45.6933C105.358 44.9902 106.081 44.4335 106.926 44.4335C107.634 44.4335 108.268 44.8339 108.522 45.4248L109.191 44.9755C108.898 44.1992 108.102 43.5595 106.935 43.5595C105.554 43.5595 104.465 44.4628 104.465 45.6738C104.465 46.8896 105.544 47.3632 106.511 47.7392C107.516 48.1201 108.644 48.5449 108.644 49.4287C108.644 50.205 107.805 50.7617 106.774 50.7617C105.939 50.7617 105.134 50.3125 104.777 49.6386L104.094 50.1416C104.47 50.9814 105.475 51.6552 106.769 51.6552Z" fill="#44AAAC"/>
</svg>
