<svg width="52" height="52" viewBox="0 0 52 52" fill="none" xmlns="http://www.w3.org/2000/svg">
<path d="M31.6216 26.546C33.2477 27.1947 34.9422 27.5234 36.6665 27.5234C44.2271 27.5234 50.3774 21.3731 50.3774 13.8125C50.3774 6.25188 44.2272 0 36.6665 0C29.1058 0 22.9556 6.25188 22.9556 13.8125C22.9556 16.8907 24.0342 19.9003 26.0024 22.3506V27.9518L31.6216 26.546ZM41.2368 12.2891H44.2837V15.3359H41.2368V12.2891ZM35.1431 12.2891H38.1899V15.3359H35.1431V12.2891ZM29.0493 12.2891H32.0962V15.3359H29.0493V12.2891Z" fill="#15888A"/>
<path d="M36.6665 52H38.1899V40.2469L27.5392 36.6034L23.0284 39.6116C19.1038 37.8263 15.8174 34.4383 14.0321 30.5137L17.0388 26.0029L13.3969 15.3359H1.98591C1.89237 16.2622 1.66589 17.6283 1.6274 19.7248C1.48399 27.514 4.23969 35.1931 9.40678 40.9922C13.8804 46.0134 22.2414 52 36.6665 52V52Z" fill="#15888A"/>
</svg>
