<svg width="52" height="52" viewBox="0 0 52 52" fill="none" xmlns="http://www.w3.org/2000/svg">
<path d="M26.8125 3.30078V6.65641C26.8125 6.84836 26.9431 7.06123 27.1345 7.05352C30.6169 6.91275 34.7139 8.67852 34.8947 8.75723C33.4236 7.99632 31.8425 7.41802 30.1813 7.05352C29.9945 7.01187 29.8594 6.84836 29.8594 6.65641V3.30078C29.8594 1.8982 28.7229 0.761719 27.3203 0.761719H24.6797C24.6112 0.761719 24.5437 0.765172 24.4766 0.770555C25.784 0.874047 26.8125 1.96666 26.8125 3.30078V3.30078Z" fill="#15888A"/>
<path d="M48.6992 21.3789H45.628C45.1307 19.257 44.2966 17.2448 43.1453 15.39L45.3187 13.2164C46.5992 11.9878 46.5993 9.77702 45.3188 8.54841L43.4517 6.68119C42.1646 5.39429 40.0707 5.39439 38.7836 6.68119L36.6101 8.85473C36.0984 8.53724 35.569 8.24088 35.0332 7.97184C34.1177 7.54823 33.4657 8.85757 34.3497 9.33329C34.9225 9.62091 35.4875 9.94236 36.0285 10.2887C36.496 10.5879 37.0954 10.5239 37.4865 10.1328L39.8608 7.75836C40.5541 7.0653 41.6818 7.0654 42.3744 7.75836L44.2417 9.62559C44.5774 9.96135 44.7622 10.4076 44.7622 10.8824C44.7622 11.3572 44.5774 11.8035 44.2416 12.1393L41.867 14.5139C41.4762 14.9048 41.4121 15.5042 41.7113 15.9717C42.8947 17.8204 43.7329 19.8425 44.2028 21.9819C44.3219 22.5238 44.791 22.9023 45.3438 22.9023H48.6992C49.6792 22.9023 50.4766 23.6997 50.4766 24.6797V27.3203C50.4766 28.3003 49.6792 29.0977 48.6992 29.0977H45.3437C44.7909 29.0977 44.3218 29.4762 44.2027 30.0181C43.7328 32.1575 42.8946 34.1797 41.7111 36.0285C41.4121 36.4959 41.4762 37.0953 41.867 37.4863L44.2416 39.8608C44.5773 40.1965 44.7621 40.6429 44.7621 41.1176C44.7621 41.5923 44.5773 42.0386 44.2416 42.3744L42.3743 44.2415C41.7121 44.93 40.5229 44.9318 39.8609 44.2415L37.4863 41.867C37.0951 41.4761 36.4957 41.412 36.0285 41.7112C34.1797 42.8945 32.1576 43.7328 30.0182 44.2026C29.4762 44.3217 29.0978 44.7909 29.0978 45.3436V48.6992C29.0978 49.6792 28.3004 50.4766 27.3204 50.4766H24.6798C23.6998 50.4766 22.9024 49.6792 22.9024 48.6992V45.3436C22.9024 44.7908 22.5239 44.3217 21.982 44.2026C19.8427 43.7328 17.8205 42.8945 15.9718 41.7111C15.5044 41.412 14.905 41.4759 14.5138 41.867L12.1395 44.2414C11.8037 44.5771 11.3573 44.7619 10.8826 44.7619C10.4078 44.7619 9.96155 44.5771 9.62589 44.2414L7.75856 42.3743C7.07017 41.7118 7.06845 40.5229 7.75866 39.8607L10.1333 37.4861C10.5241 37.0952 10.5882 36.4958 10.289 36.0283C9.10559 34.1796 8.26739 32.1575 7.79746 30.0181C7.67843 29.4762 7.20931 29.0977 6.65651 29.0977H3.30078C2.3208 29.0977 1.52344 28.3003 1.52344 27.3203V24.6797C1.52344 23.6997 2.3208 22.9023 3.30078 22.9023H6.6563C7.20911 22.9023 7.67823 22.5238 7.79726 21.9819C8.26719 19.8425 9.10538 17.8203 10.2889 15.9715C10.5879 15.5041 10.5238 14.9047 10.133 14.5137L7.75836 12.1392C7.06997 11.4783 7.06824 10.2867 7.75846 9.62559L9.62569 7.75836C10.3185 7.0654 11.4463 7.0655 12.1392 7.75836L14.5137 10.133C14.9049 10.5239 15.5043 10.5879 15.9715 10.2888C17.8203 9.10548 19.8424 8.26719 21.9818 7.79736C22.5238 7.67833 22.9022 7.20911 22.9022 6.65641V3.30078C22.9022 2.3208 23.6996 1.52344 24.6796 1.52344H27.3202C28.3002 1.52344 29.0976 2.3208 29.0976 3.30078V6.65641C29.0976 7.20921 29.4761 7.67833 30.018 7.79736C30.3947 7.88003 30.7742 7.97601 31.146 8.08255C31.5502 8.19853 31.9721 7.96453 32.088 7.56001C32.2038 7.15559 31.9699 6.7338 31.5654 6.61802C31.2539 6.52874 30.9372 6.44638 30.6208 6.37213V3.30078C30.6211 1.48078 29.1404 0 27.3203 0H24.6797C22.8596 0 21.3789 1.48078 21.3789 3.30078V6.37203C19.2571 6.86928 17.2449 7.70341 15.3899 8.85473L13.2164 6.68119C11.9294 5.39429 9.83541 5.39439 8.54841 6.68119L6.68129 8.54841C5.40079 9.77691 5.40069 11.9879 6.68119 13.2164L8.85473 15.39C7.70352 17.2448 6.86928 19.2571 6.37203 21.3789H3.30078C1.48068 21.3789 0 22.8597 0 24.6797V27.3203C0 29.1403 1.48068 30.6211 3.30078 30.6211H6.37203C6.86928 32.743 7.70341 34.7552 8.85473 36.61L6.68129 38.7836C6.0577 39.407 5.71441 40.2359 5.71441 41.1176C5.71441 41.9992 6.05769 42.8282 6.68119 43.4516L8.54841 45.3187C9.77702 46.5991 11.9878 46.5993 13.2165 45.3187L15.3899 43.1453C17.2449 44.2965 19.2571 45.1307 21.3789 45.628V48.6992C21.3789 50.5192 22.8596 52 24.6797 52H27.3203C29.1404 52 30.6211 50.5192 30.6211 48.6992V45.628C32.7429 45.1307 34.7551 44.2966 36.6101 43.1453L38.7836 45.3187C39.4071 45.9422 40.2359 46.2855 41.1175 46.2855C41.9992 46.2855 42.8281 45.9422 43.4515 45.3187L45.3186 43.4516C46.5991 42.2231 46.5992 40.0121 45.3187 38.7836L43.1452 36.61C44.2965 34.7551 45.1307 32.7428 45.6279 30.6211H48.6991C50.5192 30.6211 51.9999 29.1403 51.9999 27.3203V24.6797C52 22.8597 50.5193 21.3789 48.6992 21.3789V21.3789Z" fill="#15888A"/>
<path d="M21.9291 40.4367C21.8361 40.847 22.0932 41.255 22.5035 41.348C23.6438 41.6067 24.8202 41.7379 25.9998 41.7379C34.6777 41.7379 41.7377 34.6779 41.7377 26C40.9473 5.15267 11.0511 5.15329 10.2618 26.0002C10.2081 31.8474 13.6831 37.465 18.9108 40.0545C19.8265 40.4796 20.481 39.1768 19.5979 38.6948C14.7789 36.2595 11.7853 31.3952 11.7853 25.9999C12.4977 7.17214 39.5015 7.17011 40.2143 26.0001C40.3258 34.9921 31.5697 41.9488 22.8404 39.8622C22.4301 39.7692 22.0223 40.0264 21.9291 40.4367V40.4367Z" fill="#15888A"/>
<path d="M26.7287 23.11C27.734 23.0807 27.7364 21.6172 26.7287 21.5866H23.6514C23.2306 21.5866 22.8896 21.9277 22.8896 22.3483V29.6516C22.8896 30.0723 23.2306 30.4133 23.6514 30.4133H26.7287C27.1495 30.4133 27.4904 30.0723 27.4904 29.6516C27.4904 29.2309 27.1495 28.8899 26.7287 28.8899H24.4131V26.7617H26.5017C26.9225 26.7617 27.2634 26.4207 27.2634 26C27.2634 25.5793 26.9225 25.2383 26.5017 25.2383H24.4131V23.11H26.7287Z" fill="black"/>
<path d="M18.2736 28.9236C17.4968 28.9236 16.7476 28.6086 16.2694 28.0812C15.987 27.7694 15.5053 27.746 15.1935 28.0283C14.8819 28.3109 14.8581 28.7926 15.1407 29.1043C15.9027 29.945 17.0738 30.447 18.2736 30.447C19.7256 30.447 20.9915 29.4904 21.2179 28.2218C21.39 27.2578 20.9444 25.9953 19.1772 25.3435C18.2462 25 17.3811 24.6255 17.1437 24.5212C16.6947 24.1635 16.7917 23.4092 17.5853 23.1599C18.7117 22.8208 19.7392 23.6407 19.7609 23.6583C20.0829 23.9259 20.5611 23.8836 20.8308 23.5626C21.1015 23.2406 21.0599 22.7602 20.7379 22.4894C20.671 22.4331 19.0772 21.1193 17.1459 21.7013C16.1885 21.9896 15.5116 22.7418 15.3791 23.6641C15.2499 24.5582 15.6669 25.4499 16.4591 25.8843C16.5015 25.9032 17.5118 26.3529 18.65 26.7728C19.4127 27.0541 19.802 27.4846 19.7183 27.954C19.6332 28.4306 19.0695 28.9236 18.2736 28.9236V28.9236Z" fill="black"/>
<path d="M37.0568 26C37.0568 23.5479 35.0618 21.553 32.6098 21.553C26.7184 21.7765 26.7201 30.2243 32.6099 30.4469C35.0619 30.447 37.0568 28.4521 37.0568 26V26ZM29.6863 26C29.6863 24.3879 30.9978 23.0764 32.6098 23.0764C36.483 23.2234 36.4819 28.7771 32.6098 28.9235C30.9978 28.9236 29.6863 27.6121 29.6863 26V26Z" fill="black"/>
</svg>
